<svg xmlns="http://www.w3.org/2000/svg" xmlns:xlink="http://www.w3.org/1999/xlink" x="0px" y="0px" width="112" height="16px" viewBox="0 0 112 16">

<g  transform="translate(0, 0)">
<path fill="#ffffff" d="M3,16h10c0.6,0,1-0.4,1-1V7.5l0.3,0.3C14.5,7.9,14.8,8,15,8c0.3,0,0.6-0.1,0.8-0.3c0.4-0.4,0.3-1-0.1-1.4
	l-7-6c-0.4-0.3-0.9-0.3-1.3,0L4,3.1V2c0-0.6-0.4-1-1-1S2,1.4,2,2v2.8L0.3,6.2c-0.4,0.4-0.5,1-0.1,1.4c0.4,0.4,1,0.5,1.4,0.1L2,7.5
	V15C2,15.6,2.4,16,3,16z M4,5.7l4-3.4l4,3.5c0,0.1,0,0.1,0,0.2v8h-2v-3c0-0.6-0.4-1-1-1H7c-0.6,0-1,0.4-1,1v3H4V5.7z"/>
<rect data-color="color-2" x="6" y="6" fill="#ffffff" width="4" height="2"/>
</g>
    
<g  transform="translate(16, 0)">

    <path fill="#ffffff" d="M15.338 6.165c0 4.070-7.338 9.173-7.338 9.173s-7.338-5.103-7.338-9.173c-0.008-0.406 0.034-0.861 0-1.376-0.151-2.274 1.848-4.128 4.128-4.128 1.305 0 2.454 0.89 3.211 1.835 0.756-0.945 1.905-1.835 3.211-1.835 2.28 0 4.279 1.853 4.128 4.128-0.034 0.515 0.008 0.97 0 1.376zM13.504 4.789c0.114-1.261-1.027-2.293-2.293-2.293-2.377 0-2.293 1.835-2.293 1.835 0 0.507-0.41 0.917-0.917 0.917s-0.917-0.41-0.917-0.917c0 0 0.083-1.835-2.293-1.835-1.267 0-2.407 1.032-2.293 2.293 0.047 0.518-0.030 0.993 0.013 1.376-0.001 0-0.011 0-0.013 0 0.057-0.013-0.315 2.703 5.493 6.857 0.004-0.003 0.007-0.005 0.011-0.008 0.004 0.003 0.006 0.005 0.011 0.008 5.808-4.155 5.436-6.871 5.493-6.857-0.002 0-0.012 0-0.013 0 0.042-0.383-0.034-0.858 0.013-1.376z"></path>
</g>
    
    
<g  transform="translate(32, 0)">
        <path fill="#ffffff" d="M13,11H3c-0.6,0-1-0.4-1-1V2H0V0h3c0.6,0,1,0.4,1,1v1h11c0.9,0,1,1,1,1.3l-2,7C13.8,10.7,13.4,11,13,11z
	 M4,9h8.2l1.4-5H4V9z"/>
<circle data-color="color-2" fill="#ffffff" cx="3" cy="14" r="2"/>
<circle data-color="color-2" fill="#ffffff" cx="13" cy="14" r="2"/>
    </g>
    
<g  transform="translate(48, 0)"> 
    <path fill="#ffffff" class="path1" d="M15 3h-4v-2c0-0.552-0.448-1-1-1h-4c-0.552 0-1 0.448-1 1v2h-2v-1h-2v1c-0.552 0-1 0.448-1 1v11c0 0.553 0.448 1 1 1h14c0.552 0 1-0.447 1-1v-11c0-0.552-0.448-1-1-1zM7 2h2v1h-2v-1zM14 14h-12v-9h12v9zM8 12c1.657 0 3-1.343 3-3s-1.343-3-3-3-3 1.343-3 3 1.343 3 3 3zM8 8c0.552 0 1 0.447 1 1s-0.448 1-1 1-1-0.447-1-1 0.448-1 1-1z"></path>
</g>
    
<g  transform="translate(64, 0)">
<path fill="#ffffff"  d="M8 3l-6-3h-1c-0.553 0-1 0.448-1 1v11c0 0.553 0.447 1 1 1l7 3 7-3c0.553 0 1-0.447 1-1v-11c0-0.552-0.447-1-1-1h-1M7 13.5l-5-2.5v-8l5 1.667v8.834zM14 11l-5 2.5v-8.834l5-1.667v8z"></path>
</g>
    
<g  transform="translate(80, 0)">
<path fill="#ffffff" d="M8 0c-3.313 0-6 2.687-6 6s6 10 6 10 6-6.687 6-10-2.687-6-6-6zM8 10c-2.209 0-4-1.791-4-4s1.791-4 4-4 4 1.791 4 4-1.791 4-4 4zM8 4c-1.104 0-2 0.896-2 2s0.896 2 2 2 2-0.896 2-2-0.896-2-2-2z"></path>
</g>

</svg>